<svg width="41" height="41" viewBox="0 0 41 41" fill="none" xmlns="http://www.w3.org/2000/svg">
<path d="M11.5278 19.3856C11.9517 19.3856 12.366 19.5113 12.7184 19.7468C13.0709 19.9823 13.3455 20.317 13.5078 20.7086C13.67 21.1002 13.7124 21.5311 13.6297 21.9468C13.547 22.3625 13.3429 22.7443 13.0432 23.044C12.7435 23.3438 12.3616 23.5479 11.9459 23.6306C11.5302 23.7132 11.0993 23.6708 10.7077 23.5086C10.3161 23.3464 9.98141 23.0717 9.74593 22.7193C9.51045 22.3669 9.38476 21.9525 9.38476 21.5287C9.38476 20.9603 9.61055 20.4152 10.0124 20.0133C10.4144 19.6114 10.9594 19.3856 11.5278 19.3856ZM11.5278 16.5282C10.5388 16.5282 9.57203 16.8215 8.74971 17.3709C7.92738 17.9204 7.28646 18.7014 6.90798 19.6151C6.52951 20.5288 6.43048 21.5342 6.62343 22.5042C6.81637 23.4742 7.29262 24.3652 7.99195 25.0645C8.69128 25.7639 9.58228 26.2401 10.5523 26.4331C11.5223 26.626 12.5277 26.527 13.4414 26.1485C14.3551 25.77 15.1361 25.1291 15.6856 24.3068C16.235 23.4845 16.5283 22.5177 16.5283 21.5287C16.5283 20.2025 16.0015 18.9306 15.0637 17.9928C14.1259 17.055 12.854 16.5282 11.5278 16.5282V16.5282Z" fill="#93A98E"/>
<path d="M33.6728 17.957H22.2431C21.4853 17.957 20.7585 18.258 20.2226 18.7939C19.6867 19.3298 19.3857 20.0565 19.3857 20.8144V29.3866H3.66991V13.0994L20.8144 3.86991L38.7161 13.4994L40.0591 10.9849L21.4859 0.983919C21.2792 0.873851 21.0486 0.816284 20.8144 0.816284C20.5802 0.816284 20.3496 0.873851 20.1429 0.983919L1.56971 10.9849C1.34158 11.1063 1.15067 11.2874 1.01732 11.5088C0.883978 11.7302 0.81319 11.9837 0.8125 12.2421V40.8163H3.66991V32.244H37.9589V40.8163H40.8163V25.1005C40.8163 23.2059 40.0637 21.3889 38.724 20.0493C37.3843 18.7096 35.5674 17.957 33.6728 17.957ZM22.2431 29.3866V20.8144H33.6728C34.8095 20.8144 35.8997 21.266 36.7035 22.0698C37.5073 22.8736 37.9589 23.9638 37.9589 25.1005V29.3866H22.2431Z" fill="#93A98E"/>
</svg>
