<svg width="50" height="30" viewBox="0 0 50 30" fill="none" xmlns="http://www.w3.org/2000/svg">
<path d="M48.2143 12C48.6879 12 49.1421 11.842 49.477 11.5607C49.8119 11.2794 50 10.8978 50 10.5V3C50 2.20435 49.6237 1.44129 48.954 0.87868C48.2842 0.31607 47.3758 0 46.4286 0H3.57143C2.62423 0 1.71582 0.31607 1.04605 0.87868C0.376274 1.44129 0 2.20435 0 3V10.5C0 10.8978 0.188137 11.2794 0.523024 11.5607C0.85791 11.842 1.31211 12 1.78571 12C2.73292 12 3.64132 12.3161 4.3111 12.8787C4.98087 13.4413 5.35714 14.2044 5.35714 15C5.35714 15.7956 4.98087 16.5587 4.3111 17.1213C3.64132 17.6839 2.73292 18 1.78571 18C1.31211 18 0.85791 18.158 0.523024 18.4393C0.188137 18.7206 0 19.1022 0 19.5V27C0 27.7956 0.376274 28.5587 1.04605 29.1213C1.71582 29.6839 2.62423 30 3.57143 30H46.4286C47.3758 30 48.2842 29.6839 48.954 29.1213C49.6237 28.5587 50 27.7956 50 27V19.5C50 19.1022 49.8119 18.7206 49.477 18.4393C49.1421 18.158 48.6879 18 48.2143 18C47.2671 18 46.3587 17.6839 45.6889 17.1213C45.0191 16.5587 44.6429 15.7956 44.6429 15C44.6429 14.2044 45.0191 13.4413 45.6889 12.8787C46.3587 12.3161 47.2671 12 48.2143 12V12ZM46.4286 20.805V27H33.9286V22.5H30.3571V27H3.57143V20.805C5.09999 20.4694 6.45297 19.7176 7.41861 18.6672C8.38425 17.6168 8.90806 16.3271 8.90806 15C8.90806 13.6729 8.38425 12.3832 7.41861 11.3328C6.45297 10.2824 5.09999 9.53059 3.57143 9.195V3H30.3571V7.5H33.9286V3H46.4286V9.195C44.9 9.53059 43.547 10.2824 42.5814 11.3328C41.6157 12.3832 41.0919 13.6729 41.0919 15C41.0919 16.3271 41.6157 17.6168 42.5814 18.6672C43.547 19.7176 44.9 20.4694 46.4286 20.805V20.805Z" fill="#93A98E"/>
<path d="M31.5217 10H34.7826V20H31.5217V10Z" fill="#93A98E"/>
</svg>
